<?xml version="1.0" encoding="utf-8"?>
<!-- Generator: Adobe Illustrator 15.1.0, SVG Export Plug-In . SVG Version: 6.00 Build 0)  -->
<!DOCTYPE svg PUBLIC "-//W3C//DTD SVG 1.1//EN" "http://www.w3.org/Graphics/SVG/1.1/DTD/svg11.dtd">
<svg version="1.1" id="Layer_1" xmlns="http://www.w3.org/2000/svg" xmlns:xlink="http://www.w3.org/1999/xlink" x="0px" y="0px"
	 width="196px" height="50px" viewBox="42 0 196 50" enable-background="new 42 0 196 50" xml:space="preserve">
<path fill="#058D96" d="M52,22.633h3.221v4.108h0.064c0.568-0.634,1.263-1.138,2.652-1.138c1.515,0,2.904,0.948,2.904,2.907v5.812
	h-3.219v-4.487c0-1.009-0.127-1.704-1.074-1.704c-0.568,0-1.327,0.253-1.327,1.641v4.486H52V22.633z"/>
<path fill="#00A450" d="M62.292,22.633h3.222v4.108h0.063c0.567-0.634,1.262-1.138,2.652-1.138c1.514,0,2.904,0.948,2.904,2.907
	v5.812h-3.219v-4.487c0-1.009-0.128-1.704-1.075-1.704c-0.567,0-1.325,0.253-1.325,1.641v4.486h-3.222V22.633z"/>
<path fill="#52B448" d="M72.524,25.855h3.157v1.138h0.064c0.63-1.01,1.578-1.328,2.777-1.328c0.947,0,1.895,0.506,2.275,1.328
	c0.125-0.126,0.757-1.328,2.904-1.328c2.211,0,2.905,1.519,2.905,2.907v5.811h-3.22v-4.61c0-0.822-0.065-1.516-1.075-1.516
	c-0.82,0-1.072,0.633-1.072,1.516v4.61h-3.222v-4.61c0-0.822-0.062-1.516-1.073-1.516c-0.821,0-1.074,0.633-1.074,1.516v4.61h-3.22
	v-8.527H72.524z"/>
<rect x="87.997" y="25.855" fill="#8AC341" width="3.222" height="8.527"/>
<path fill="#8AC341" d="M91.344,24.783c0.063-0.19,0.063-0.317,0.063-0.508c0-1.011-0.82-1.769-1.768-1.769
	c-0.947,0-1.768,0.821-1.768,1.769c0,0.19,0,0.317,0.063,0.508H91.344z"/>
<line fill="none" stroke="#FFFFFF" stroke-width="0.3159" stroke-miterlimit="10" x1="97.533" y1="20.8" x2="97.533" y2="44.5"/>
<path fill="#FFFFFF" d="M206.843,24.783c0.064-0.19,0.064-0.317,0.064-0.508c0-1.011-0.823-1.769-1.771-1.769
	c-0.946,0-1.768,0.821-1.768,1.769c0,0.19,0,0.38,0.063,0.508H206.843z"/>
<path fill="#FFFFFF" d="M120.333,24.783c0.062-0.19,0.062-0.317,0.062-0.508c0-1.011-0.82-1.769-1.767-1.769
	c-1.013,0-1.77,0.821-1.77,1.769c0,0.19,0,0.38,0.065,0.508H120.333z"/>
<path fill="#FFFFFF" d="M104.544,34.322V22.569h5.62c2.652,0,4.737,0.632,4.737,2.972c0,1.201-0.758,2.083-1.515,2.591
	c1.262,0.316,1.957,1.452,1.957,2.713c0,2.657-2.021,3.539-5.052,3.539h-5.747V34.322z M108.396,25.288v1.959h1.577
	c0.76,0,1.327-0.314,1.327-1.011c0-0.949-0.757-0.949-1.58-0.949H108.396z M108.396,29.395v2.147h1.705
	c0.947,0,1.642-0.189,1.642-1.075c0-1.01-0.885-1.072-2.147-1.072H108.396z"/>
<path fill="#FFFFFF" d="M116.923,34.322V25.73h3.41v8.592H116.923z"/>
<path fill="#FFFFFF" d="M126.647,25.476c3.031,0,4.863,1.77,4.863,4.422c0,3.158-2.146,4.614-4.863,4.614
	c-2.778,0-4.862-1.515-4.862-4.424C121.785,27.185,123.742,25.476,126.647,25.476z M125.194,29.962c0,1.644,0.632,2.34,1.453,2.34
	c0.947,0,1.452-0.697,1.452-2.34c0-1.262-0.567-2.21-1.452-2.147C125.512,27.815,125.194,29.015,125.194,29.962z"/>
<path fill="#FFFFFF" d="M133.216,34.322V22.569h3.847v11.753H133.216z"/>
<path fill="#FFFFFF" d="M138.956,25.73h3.09v1.327c0.76-1.011,1.581-1.581,2.905-1.581c2.273,0,3.349,1.328,3.349,3.665v5.117
	h-3.408v-4.549c0-0.819-0.256-1.577-1.201-1.577c-1.072,0-1.33,0.695-1.33,1.767v4.359h-3.405V25.73z"/>
<path fill="#FFFFFF" d="M155.374,34.322c-4.484,0.251-4.99-0.064-4.99-3.037v-3.597h-1.199V25.73h1.262v-2.656h3.349v2.656h1.64
	v1.958h-1.64v3.092c0,0.761,0.126,1.076,1.067,1.076h0.571v2.465H155.374L155.374,34.322z"/>
<path fill="#FFFFFF" d="M159.919,30.781c0,1.012,0.76,1.708,1.705,1.708c0.568,0,1.01-0.251,1.265-0.756h3.283
	c-0.568,2.146-2.778,2.841-4.738,2.841c-2.778,0-4.86-1.575-4.86-4.422c0-2.841,2.082-4.61,4.86-4.61
	c3.158,0,5.116,2.211,5.054,5.305h-6.568V30.781z M163.013,29.08c0-0.76-0.694-1.518-1.515-1.518c-1.009,0-1.579,0.569-1.579,1.518
	H163.013z"/>
<path fill="#FFFFFF" d="M167.623,25.73h3.096v1.707h0.062c0.507-1.329,1.327-1.961,2.646-1.961c0.134,0,0.324,0.064,0.45,0.064
	v3.411c-0.254-0.062-0.505-0.125-0.694-0.125c-1.39,0-2.086,0.631-2.086,2.526v2.97h-3.409v-8.593L167.623,25.73L167.623,25.73z"/>
<path fill="#FFFFFF" d="M180.695,34.322l-0.189-0.951c-0.944,0.887-1.954,1.142-3.219,1.142c-1.643,0-3.031-0.827-3.031-2.591
	c0-3.917,6.124-2.148,6.124-3.725c0-0.634-0.76-0.697-1.135-0.697c-0.505,0-1.14,0.124-1.199,0.82h-3.283
	c0-1.831,1.259-2.907,4.673-2.907c4.039,0,4.294,1.519,4.294,3.538v3.98c0,0.506,0,0.754,0.44,1.076v0.189h-3.476L180.695,34.322
	L180.695,34.322z M180.38,30.531c-1.134,0.569-2.589,0.25-2.589,1.391c0,0.441,0.381,0.696,1.075,0.696
	C180.065,32.616,180.446,31.732,180.38,30.531z"/>
<path fill="#FFFFFF" d="M191.244,29.015c0-0.378-0.124-0.695-0.379-0.883c-0.189-0.251-0.505-0.317-0.885-0.317
	c-1.259,0-1.516,1.327-1.516,2.336c0,1.265,0.506,2.151,1.516,2.151c0.885,0,1.2-0.633,1.322-1.266h3.416
	c-0.129,1.266-0.76,2.211-1.58,2.781c-0.819,0.566-1.958,0.821-3.158,0.821c-2.779,0-4.866-1.581-4.866-4.424
	c0-2.905,2.087-4.611,4.866-4.611c2.274,0,4.416,1.011,4.675,3.539h-3.411V29.015z"/>
<path fill="#FFFFFF" d="M201.784,34.322c-4.477,0.251-4.981-0.064-4.981-3.037v-3.597h-1.206V25.73h1.268v-2.656h3.35v2.656h1.64
	v1.958h-1.64v3.092c0,0.761,0.125,1.076,1.07,1.076h0.568v2.465H201.784L201.784,34.322z"/>
<path fill="#FFFFFF" d="M203.433,34.322V25.73h3.41v8.592H203.433z"/>
<path fill="#FFFFFF" d="M207.917,25.73h3.41l1.514,5.43l1.455-5.43h3.284l-2.906,8.592h-3.789L207.917,25.73z"/>
<path fill="#FFFFFF" d="M221.43,30.781c0,1.012,0.761,1.708,1.705,1.708c0.57,0,1.011-0.251,1.265-0.756h3.284
	c-0.568,2.146-2.779,2.841-4.737,2.841c-2.776,0-4.86-1.575-4.86-4.422c0-2.841,2.084-4.61,4.86-4.61
	c3.157,0,5.117,2.211,5.052,5.305h-6.568V30.781L221.43,30.781z M224.524,29.08c0-0.76-0.695-1.518-1.515-1.518
	c-1.009,0-1.58,0.569-1.58,1.518H224.524z"/>
<linearGradient id="SVGID_1_" gradientUnits="userSpaceOnUse" x1="-661.0981" y1="-31.6509" x2="-637.0961" y2="-31.6509" gradientTransform="matrix(1 0 0 1 864 46.0078)">
	<stop  offset="0" style="stop-color:#058D96"/>
	<stop  offset="1" style="stop-color:#8AC341"/>
</linearGradient>
<path fill="url(#SVGID_1_)" d="M203.242,5.566c-0.252-0.127-0.314-0.062-0.314,0.127c0,0.189,0.125,7.774,0.125,7.774
	s0,0.443,0.316,0.127c0.309-0.318,1.453-1.581,1.453-1.581s0.252-0.315,0.442-0.063c0.188,0.253,2.527,3.413,2.527,3.413
	s-0.318,0.569-1.2,0.569c0,0,0.126-0.506,0.126-0.759c0-0.253-0.19-0.695-0.634-0.568c-0.442,0.125-0.314,0.443-0.126,0.758
	c0.189,0.315,0.126,0.443,0,0.505c-0.126,0.064-0.251-0.189-0.316-0.442c-0.062-0.188-0.249-0.882-0.63-0.506
	c-0.443,0.317,0.062,0.571,0.253,0.824c0.188,0.252,0.252,0.505,0,0.505c-0.253-0.065-0.506-0.505-0.757-0.57
	c-0.255-0.062-0.95,0.38,0.44,0.885c0.188,0.063,0.379,0.253,0.126,0.38c-0.252,0.125-0.315-0.064-0.566,0
	c-0.255,0.062-0.38,0.252-0.255,0.443c0.126,0.188,0.632,0.188,0.884,0.062c0.256-0.127,0.442-0.19,0.57-0.38
	c0.125-0.19,0.125-0.253,0.44-0.125c0.315,0.125,0.63,0.378,1.264,0.378c0.567,0,1.2-0.443,1.39-0.696
	c0.19-0.253,0.315-0.443,0.506-0.188c0.19,0.253,2.4,2.401,7.389,1.641c0,0,0.696-0.125,0.82,0.632
	c0.124,0.758,0.439,1.645,1.265,2.212c0.314,0.253,0.314,0.443,0.062,0.823c-0.251,0.443,0.064,1.201,0.253,1.264
	c0.381,0.063,0.315-0.505,0.315-0.696c0-0.19-0.125-0.631,0.125-0.631c0.255,0,0.255,0.378,0.255,0.691
	c0,0.32-0.065,0.636,0.25,0.762c0.315,0.126,0.569,0.126,0.634-0.252c0.062-0.379-0.13-0.442-0.254-0.632
	c-0.125-0.19-0.315-0.38-0.064-0.568c0.254-0.19,0.318,0.253,0.634,0.505c0.38,0.253,0.695-0.19,0.44-0.57
	c-0.25-0.378-0.695-0.443-0.695-0.631c0-0.189,0.129-0.126,0.505-0.189c0.256,0,0.505-0.062,0.444-0.442
	c-0.064-0.381-0.38-0.316-1.14,0.062c-0.694,0.318-0.944-0.631-0.944-0.884c0-0.256-0.065-0.569-0.065-1.265
	s0.125-0.696,0.569-0.696c1.705,0,3.22,0.189,6.759,4.235c0.25,0.315,0.376,0.315,0.25-0.315c-0.125-0.758-1.39-5.437-5.304-6.764
	c-0.19-0.063-0.57-0.125-0.19-1.074c0.381-1.011-0.506-2.464-0.568-2.529c-0.062-0.062-0.062-0.253,0.253-0.378
	c0.315-0.191,0.506-0.253,0.441-0.823c-0.062-0.443-0.506-0.443-0.696-0.253c-0.25,0.189-0.125,0.696-0.315,0.696
	c-0.189,0-0.125-0.316-0.06-0.696c0.06-0.378-0.381-0.506-0.695-0.315c-0.318,0.189-0.254,0.568-0.13,0.758
	c0.13,0.253,0.381,0.38,0.19,0.568c-0.19,0.19-0.44-0.188-0.505-0.379c-0.127-0.379-0.441-0.758-0.944-0.252
	c-0.381,0.378,0.188,0.568,0.503,0.758c0.381,0.19,0.314,0.506,0.061,0.506c-0.249,0-0.563-0.506-0.754,0
	c-0.125,0.316,0.124,0.695,0.439,0.632c0.314-0.064,0.635-0.252,0.949-0.19c0.315,0.063,0.315,0.38,0.251,0.632
	c-0.125,0.253-0.886,1.64-0.886,1.64s0,0.13-0.63,0.192c-0.569,0.064-3.408,0.318-4.923-0.192c-1.516-0.503-1.516-0.566-1.265-0.946
	c0.314-0.378,0.569-0.757,0.884-0.694c0.381,0.063,0.695,0.441,0.885,0.759c0.189,0.315,0.568,0.378,0.695,0.125
	c0.125-0.252-0.255-0.442-0.38-0.504c-0.126-0.126-0.19-0.316,0.123-0.316c0.315,0,0.571,0.19,0.823,0.19
	c0.253-0.064,0.378-0.253,0.188-0.506c-0.125-0.254-0.629-0.19-0.88-0.254c-0.254-0.063,0-0.252,0.692-0.378
	c0.567-0.063,0.253-1.138-0.317-0.633c-0.248,0.19-0.314,0.253-0.504,0.317c-0.189,0.062-0.315-0.127-0.189-0.317
	c0.189-0.19,0.569-0.316,0.505-0.505c-0.061-0.126-0.25-0.38-0.566-0.126c-0.314,0.253-0.505,0.315-0.569,0.692
	c0,0.191-0.124,0.381-0.631,0.381c-0.504,0-0.693-0.125-1.072,0.316c-0.255,0.252-0.569,0.506-0.76,0.632
	c-0.195,0.126-0.44,0.126-0.696-0.19c-0.249-0.316-2.271-2.086-2.271-2.086s-0.253-0.253,0.124-0.442
	c0.381-0.189,1.643-0.762,1.896-0.885c0.38-0.19,0.442-0.253,0.127-0.38C209.871,8.031,203.499,5.693,203.242,5.566z"/>
<path fill="#FFFFFF" d="M203.309,5.947c0,0,3.788,7.71,8.648,9.354c0,0,1.769,0.696,4.738,0.505c0,0-2.274,0.062-4.608-0.948
	c-3.349-1.391-6.064-6.132-6.064-6.132s0.38,0.19,0.755-0.126c0.444-0.317,0.444-0.632,0.444-0.632l-0.38-0.19
	c0,0,0.126,0.19-0.25,0.443c-0.319,0.189-0.76,0.127-0.885-0.253c-0.128-0.38,0.062-0.695,0.377-0.885
	C206.147,7.083,204.317,6.453,203.309,5.947z"/>
<path fill="#FFFFFF" d="M214.611,16.564c0,0,2.274,0.316,3.915,0.316c1.644,0,2.464,0.064,3.79,0.508
	c2.714,1.073,4.736,4.613,4.419,4.107c-0.315-0.506-1.137-2.844-3.03-3.983c-1.894-1.138-2.779-1.263-5.054-1.201
	C216.442,16.374,214.611,16.564,214.611,16.564z"/>
<path fill="#FFFFFF" d="M203.678,9.232c0,0,0.575-0.063,0.701,0.38c0.064,0.19,0.129,0.506-0.316,0.568c0,0-0.63,0-0.385,0.19
	c0.26,0.252,0.701,0.189,0.891,0c0.19-0.19,0.38-0.443,0.129-0.822C204.443,9.169,204.003,8.664,203.678,9.232z"/>
</svg>
